#!OML:ASF X:\für Bonn\!DataBase\2005_08_12_Daniel\c3d\Daniel.ASF
:FULLY-SPECIFIED
:DEGREES
198
root -15.7649 16.0004 -15.422 -7.85149 43.5553 -720.918
lowerback 41.9466 -7.22563 2.93356
upperback 10.6792 -7.06722 -1.32996
thorax -8.34694 -2.94811 -0.0189273
lowerneck -8.34239 -5.70326 -9.52445
upperneck -5.11962 -6.71853 6.33232
head 0.39529 -3.1736 3.51531
rclavicle 4.73108e-014 4.53229e-014
rhumerus -38.4808 -0.874171 -88.5347
rradius 36.6339
rwrist 6.57203
rhand -27.0173 23.9257
rfingers 7.12502
rthumb -0.436823 -6.05362
lclavicle 4.73108e-014 4.53229e-014
lhumerus -3.80962 18.1708 94.7575
lradius 40.591
lwrist -19.2285
lhand -21.0707 -5.49026
lfingers 7.12502
lthumb 5.30608 24.4233
rfemur -39.3117 7.18711 21.7726
rtibia 50.3951
rfoot -6.69582 5.10109
rtoes -9.8543
lfemur 7.97114 0.611197 -22.6379
ltibia 57.42
lfoot -31.5127 -11.9853
ltoes 0.788531
199
root -15.6683 16.006 -15.3162 -7.68949 43.4994 -721
lowerback 41.8777 -7.35695 3.16033
upperback 10.615 -7.1445 -1.32561
thorax -8.41963 -2.98586 -0.0943002
lowerneck -8.31845 -5.72958 -9.54343
upperneck -5.13039 -6.75446 6.38517
head 0.393778 -3.19163 3.53622
rclavicle -3.81667e-014 3.22031e-014
rhumerus -38.4295 -0.885951 -88.5746
rradius 36.6756
rwrist 6.47887
rhand -26.8282 24.0492
rfingers 7.12502
rthumb -0.254134 -5.93039
lclavicle -3.81667e-014 3.22031e-014
lhumerus -3.97716 17.9717 94.6353
lradius 40.6722
lwrist -19.1297
lhand -21.1168 -5.31836
lfingers 7.12502
lthumb 5.26159 24.5963
rfemur -39.3567 6.93231 21.9793
rtibia 50.9467
rfoot -6.89306 5.4613
rtoes -9.28543
lfemur 8.1981 0.567242 -22.6095
ltibia 57.2704
lfoot -30.6291 -11.9079
ltoes 0.608406
200
root -15.5692 16.0485 -15.208 -7.53523 43.4306 -721.062
lowerback 41.8365 -7.48045 3.34338
upperback 10.542 -7.22717 -1.30635
thorax -8.5047 -3.02662 -0.127672
lowerneck -8.28814 -5.74357 -9.62802
upperneck -5.12181 -6.76946 6.4392
head 0.398404 -3.19841 3.57105
rclavicle -5.76476e-014 1.74931e-014
rhumerus -38.3959 -0.857255 -88.5847
rradius 36.7554
rwrist 6.39947
rhand -26.6226 24.1504
rfingers 7.12502
rthumb -0.0555902 -5.82934
lclavicle -5.76476e-014 1.74931e-014
lhumerus -4.08838 17.8829 94.5529
lradius 40.6641
lwrist -19.0765
lhand -21.1722 -5.14591
lfingers 7.12502
lthumb 5.20813 24.7701
rfemur -39.1596 6.66771 22.1858
rtibia 51.3497
rfoot -7.19855 5.84995
rtoes -8.73958
lfemur 8.49784 0.555144 -22.5745
ltibia 56.9942
lfoot -29.6201 -11.807
ltoes 0.337644
201
root -15.4742 16.0553 -15.1042 -7.38074 43.3493 -721.143
lowerback 41.7718 -7.59633 3.54776
upperback 10.4834 -7.29395 -1.2961
thorax -8.56967 -3.06002 -0.189926
lowerneck -8.20319 -5.75602 -9.65962
upperneck -5.21085 -6.78977 6.48145
head 0.359353 -3.20827 3.5942
rclavicle 1.21656e-013 -5.08889e-014
rhumerus -38.3027 -0.936243 -88.5951
rradius 36.8116
rwrist 6.40343
rhand -26.3952 24.2895
rfingers 7.12502
rthumb 0.16408 -5.69014
lclavicle 1.21656e-013 -5.08889e-014
lhumerus -4.19004 17.7397 94.4525
lradius 40.6862
lwrist -19.0201
lhand -21.2305 -4.99096
lfingers 7.12502
lthumb 5.15176 24.9264
rfemur -39.1668 6.45693 22.3916
rtibia 51.8617
rfoot -7.47727 6.18937
rtoes -8.24229
lfemur 8.68044 0.550014 -22.5366
ltibia 56.905
lfoot -28.7097 -11.6788
ltoes -0.226092
202
root -15.3818 16.0608 -15.0017 -7.24466 43.2571 -721.204
lowerback 41.7594 -7.69739 3.72362
upperback 10.4016 -7.35283 -1.29215
thorax -8.67435 -3.0895 -0.243445
lowerneck -8.03267 -5.772 -9.75145
upperneck -5.29132 -6.81838 6.57212
head 0.313564 -3.22268 3.64758
rclavicle -1.11319e-014 6.12257e-014
rhumerus -38.2789 -0.970213 -88.6243
rradius 36.9458
rwrist 6.38134
rhand -26.2019 24.3481
rfingers 7.12502
rthumb 0.350717 -5.63138
lclavicle -1.11319e-014 6.12257e-014
lhumerus -4.34865 17.5109 94.3125
lradius 40.7154
lwrist -18.9281
lhand -21.2708 -4.74017
lfingers 7.12502
lthumb 5.11289 25.1781
rfemur -39.1424 6.27018 22.5936
rtibia 52.3615
rfoot -7.80683 6.50898
rtoes -7.97346
lfemur 8.85622 0.575648 -22.4946
ltibia 56.8637
lfoot -27.7314 -11.5399
ltoes -0.680267
203
root -15.2908 16.068 -14.9 -7.08752 43.165 -721.264
lowerback 41.726 -7.7828 3.87299
upperback 10.3213 -7.40262 -1.26934
thorax -8.76607 -3.11582 -0.268973
lowerneck -7.87891 -5.76953 -9.8309
upperneck -5.39971 -6.82112 6.64023
head 0.257761 -3.22368 3.69217
rclavicle -2.54444e-014 3.73715e-014
rhumerus -38.2383 -0.873176 -88.6758
rradius 37.1466
rwrist 6.26517
rhand -25.9996 24.3105
rfingers 7.12502
rthumb 0.546167 -5.66851
lclavicle -2.54444e-014 3.73715e-014
lhumerus -4.47686 17.3198 94.1696
lradius 40.7182
lwrist -18.8476
lhand -21.287 -4.62147
lfingers 7.12502
lthumb 5.09724 25.2972
rfemur -39.1975 6.11692 22.7845
rtibia 53.0235
rfoot -8.27454 6.83168
rtoes -7.80583
lfemur 8.89555 0.589949 -22.4501
ltibia 57.0545
lfoot -26.8548 -11.4238
ltoes -1.29312
204
root -15.2022 16.0738 -14.8 -6.93175 43.0386 -721.301
lowerback 41.692 -7.84184 3.98664
upperback 10.2669 -7.43558 -1.26237
thorax -8.82722 -3.13376 -0.302258
lowerneck -7.73138 -5.76888 -9.87693
upperneck -5.52219 -6.82818 6.69464
head 0.19683 -3.22719 3.72555
rclavicle -2.18663e-014 -5.56597e-015
rhumerus -38.1347 -0.828628 -88.7406
rradius 37.3417
rwrist 6.26694
rhand -25.8673 24.2612
rfingers 7.12502
rthumb 0.673907 -5.71749
lclavicle -2.18663e-014 -5.56597e-015
lhumerus -4.53396 17.121 94.0226
lradius 40.6671
lwrist -18.7656
lhand -21.3592 -4.51176
lfingers 7.12502
lthumb 5.0275 25.4086
rfemur -39.2374 6.02509 22.9616
rtibia 53.664
rfoot -8.78953 7.13572
rtoes -7.955
lfemur 8.89574 0.706741 -22.3621
ltibia 57.3104
lfoot -25.925 -11.3602
ltoes -1.89976
205
root -15.1207 16.0395 -14.7068 -6.77439 42.9187 -721.318
lowerback 41.6896 -7.88233 4.07417
upperback 10.1964 -7.45411 -1.24969
thorax -8.91222 -3.14502 -0.319882
lowerneck -7.54108 -5.76982 -9.92236
upperneck -5.66863 -6.84109 6.75217
head 0.121206 -3.23401 3.76137
rclavicle -1.19271e-015 2.34566e-014
rhumerus -38.0821 -0.788427 -88.7915
rradius 37.612
rwrist 6.28504
rhand -25.772 24.1682
rfingers 7.12502
rthumb 0.765995 -5.8102
lclavicle -1.19271e-015 2.34566e-014
lhumerus -4.61868 16.9301 93.8779
lradius 40.6197
lwrist -18.7044
lhand -21.3609 -4.43628
lfingers 7.12502
lthumb 5.02593 25.4841
rfemur -39.449 5.96576 23.1239
rtibia 54.3365
rfoot -9.19665 7.32355
rtoes -8.2804
lfemur 8.79253 0.854638 -22.2641
ltibia 57.7049
lfoot -24.9315 -11.3967
ltoes -2.40664
206
root -15.036 16.0458 -14.6096 -6.63937 42.777 -721.353
lowerback 41.6931 -7.90855 4.15821
upperback 10.1234 -7.4572 -1.24138
thorax -9.00174 -3.1493 -0.346471
lowerneck -7.40568 -5.76762 -9.96517
upperneck -5.74779 -6.84632 6.80466
head 0.0761698 -3.23709 3.79285
rclavicle 3.49861e-014 -2.22639e-014
rhumerus -38.0203 -0.7135 -88.8536
rradius 37.8983
rwrist 6.32003
rhand -25.6619 24.0677
rfingers 7.12502
rthumb 0.872333 -5.91024
lclavicle 3.49861e-014 -2.22639e-014
lhumerus -4.70907 16.7608 93.7219
lradius 40.5662
lwrist -18.66
lhand -21.2749 -4.37724
lfingers 7.12502
lthumb 5.10895 25.5412
rfemur -39.3966 5.92157 23.293
rtibia 54.8191
rfoot -9.68024 7.56965
rtoes -8.53525
lfemur 8.73505 1.02529 -22.1204
ltibia 57.9972
lfoot -23.7576 -11.4741
ltoes -2.83225
